<svg width="117" height="108" viewBox="0 0 117 108" fill="none" xmlns="http://www.w3.org/2000/svg">
<path d="M60.5001 103.5C54.0001 108 53.5001 108.5 52.0001 100.5L50.0001 90C49.3114 86.5246 49.6273 85.7559 54.5001 84C54.5001 84 67.5 78.9999 70 78C72.5 77 72.5027 77.6239 73 79C74.2308 83.9103 74.4817 85.873 75 89.5C75.5476 92.7322 75 93.5 70.5 96.5L60.5001 103.5Z" fill="#26A69A" stroke="#26A69A"/>
<path d="M7.49854 31.9402C1.16224 36.6679 0.528999 36.9826 7.6343 40.953L16.95 46.1939C20.0249 47.9539 20.8542 47.8994 24.071 43.8398C24.071 43.8398 32.9521 33.1102 34.6964 31.059C36.4406 29.0079 35.8501 28.8066 34.7042 27.8968C30.4418 25.1657 28.6613 24.3027 25.3884 22.6559C22.4991 21.1071 21.5968 21.3816 17.3195 24.6914L7.49854 31.9402Z" fill="#26A69A" stroke="#26A69A"/>
<path d="M57.1965 15.4575C74.6949 0.262328 98.0626 -4.20873 113.969 8.12193C119.886 27.0935 112.284 41.3942 98.8037 54.2315C85.441 66.9569 60.7426 76.4643 49.7074 80.7122L49.4194 80.8231C38.5316 85.0149 36.717 86.4558 29.8472 76.2383L25.6995 70.6056C17.4039 60.2572 18.8298 58.8163 25.6995 49.6467C32.5692 40.4772 39.6982 30.6528 57.1965 15.4575Z" fill="#26A69A" stroke="#26A69A"/>
<path d="M22.2499 77L16.9999 70C13.4189 65.2227 11.7037 65.6954 8.99994 70.5C1.99861 85.9591 3.85327 91.1045 24.5 90.5C26 90.5 31.5 89.5 27.5 84L22.2499 77Z" fill="#26A69A" stroke="#26A69A"/>
<circle cx="80.5" cy="32.5" r="12.5" fill="white"/>
</svg>
