<svg xmlns="http://www.w3.org/2000/svg" width="800" height="552.695" viewBox="0 0 800 552.695" xmlns:xlink="http://www.w3.org/1999/xlink" role="img" artist="Katerina Limpitsouni" source="https://undraw.co/"><g transform="translate(-560 -263.653)"><path d="M1352.823,232.384H580.068a13.756,13.756,0,0,0-13.622,13.857v525.01a13.749,13.749,0,0,0,13.622,13.828h772.755a13.75,13.75,0,0,0,13.622-13.828V246.241a13.756,13.756,0,0,0-13.62-13.857Z" transform="translate(-6.445 31.269)" fill="#090814"/><path d="M1328.751,232.384h-749.1a13.234,13.234,0,0,0-13.209,13.232v501.34a13.228,13.228,0,0,0,13.209,13.209h749.1a13.228,13.228,0,0,0,13.209-13.209V245.617a13.233,13.233,0,0,0-13.2-13.232Z" transform="translate(-5.209 34.014)" fill="#fff"/><path d="M0,0H256V320H0Z" transform="translate(832 399)" fill="#e6e6e6"/><g transform="translate(1010 677)"><path d="M3.07,14.35a91.812,91.812,0,0,1,45.762-2.616,98.394,98.394,0,0,1,13.1,3.626,2.5,2.5,0,1,0,1.329-4.821A96.579,96.579,0,0,0,1.74,9.529c-3.058.965-1.752,5.794,1.329,4.821Z" fill="#009688"/><path d="M55.974,3.761,58.56,8.625l1.33,2.5.665,1.251a2.687,2.687,0,0,0,.3.556c-.515-.54,1.425-2.154.513-1.825a19.358,19.358,0,0,0-2.345,1.244l-2.482,1.317L51.571,16.3a2.521,2.521,0,0,0-.9,3.42,2.555,2.555,0,0,0,3.42.9l5.792-3.072,2.758-1.463c1.148-.609,2.344-1.112,2.882-2.385a4.213,4.213,0,0,0-.581-3.706L63.394,7.075l-3.1-5.837a2.521,2.521,0,0,0-3.42-.9,2.555,2.555,0,0,0-.9,3.42h0Z" fill="#009688"/></g><path d="M4,0H240a4,4,0,0,1,4,4V128a4,4,0,0,1-4,4H4a4,4,0,0,1-4-4V4A4,4,0,0,1,4,0Z" transform="translate(838 407)" fill="#009688"/><g transform="translate(917.302 449.298)"><path d="M5.261,7.879l20.526,22.1L27.8,22.35A76.408,76.408,0,0,0,1.335,39.6c-4.144,4.174,2.308,10.632,6.456,6.456a65.558,65.558,0,0,1,22.438-14.9c3.194-1.254,4.519-4.932,2.014-7.629L11.716,1.423C7.709-2.891,1.264,3.576,5.261,7.879Z" transform="translate(0 0)"/><path d="M19.314,30.084H68.677c5.874,0,5.884-9.129,0-9.129H19.314c-5.874,0-5.884,9.129,0,9.129Z" transform="translate(12.309 17.306)"/></g><path d="M4,0H116a4,4,0,0,1,4,4V20a4,4,0,0,1-4,4H4a4,4,0,0,1-4-4V4A4,4,0,0,1,4,0Z" transform="translate(870 559)" fill="#009688"/><path d="M4,0H190a4,4,0,0,1,4,4V20a4,4,0,0,1-4,4H4a4,4,0,0,1-4-4V4A4,4,0,0,1,4,0Z" transform="translate(870 591)" fill="#090814"/><path d="M19,0A19,19,0,1,1,0,19,19,19,0,0,1,19,0Z" transform="translate(832 341)" fill="#e6e6e6"/><path d="M4,0H76a4,4,0,0,1,4,4v8a4,4,0,0,1-4,4H4a4,4,0,0,1-4-4V4A4,4,0,0,1,4,0Z" transform="translate(881 341)" fill="#e6e6e6"/><path d="M4,0H21a4,4,0,0,1,4,4v8a4,4,0,0,1-4,4H4a4,4,0,0,1-4-4V4A4,4,0,0,1,4,0Z" transform="translate(881 363)" fill="#e6e6e6"/><g transform="translate(-8)"><circle cx="16" cy="16" r="16" transform="translate(1112 543)" fill="#009688"/><path d="M1.8,2.692,8.81,10.243,9.5,7.636A26.106,26.106,0,0,0,.456,13.529a1.56,1.56,0,0,0,2.206,2.206,22.4,22.4,0,0,1,7.666-5.091,1.583,1.583,0,0,0,.688-2.607L4,.486C2.634-.988.432,1.222,1.8,2.692Z" transform="translate(1122.269 550.902)" fill="#fff"/></g><g transform="translate(784 543)"><circle cx="16" cy="16" r="16" fill="#009688"/><path d="M9.665,2.692,2.652,10.243,1.964,7.636a26.106,26.106,0,0,1,9.042,5.893A1.56,1.56,0,0,1,8.8,15.735a22.4,22.4,0,0,0-7.666-5.091A1.583,1.583,0,0,1,.447,8.037L7.46.486c1.369-1.474,3.571.736,2.206,2.206Z" transform="translate(10.269 7.902)" fill="#fff"/></g></g></svg>