<svg xmlns="http://www.w3.org/2000/svg" width="645.619" height="800" viewBox="0 0 645.619 800" xmlns:xlink="http://www.w3.org/1999/xlink" role="img" artist="Katerina Limpitsouni" source="https://undraw.co/"><g transform="translate(-828 -280.215)"><path d="M942.3,251.677a31.909,31.909,0,0,0-29.186-19.523H330.675A31.59,31.59,0,0,0,299.1,263.728V1000.58a31.59,31.59,0,0,0,31.574,31.574H913.145a31.615,31.615,0,0,0,31.574-31.573V263.728a31.015,31.015,0,0,0-2.393-12.049Zm-4.618,748.9a24.592,24.592,0,0,1-24.567,24.56H330.675a24.564,24.564,0,0,1-24.562-24.548V263.731a24.6,24.6,0,0,1,24.562-24.562h582.47a24.683,24.683,0,0,1,22.8,15.45,27.179,27.179,0,0,1,.923,2.771,24.358,24.358,0,0,1,.84,6.34Z" transform="translate(528.9 48.061)" fill="#3f3d56"/><path d="M622.733,318.485H445.893a14.036,14.036,0,1,1,0-28.072h176.84a14.036,14.036,0,1,1,0,28.072Z" transform="translate(615.686 288.322)" fill="#3f3d56"/><path d="M768.865,408.159H357.547a14.045,14.045,0,1,1,0-28.072H768.865a14.045,14.045,0,1,1,0,28.072Z" transform="translate(623.125 -23.365)" fill="#009688"/><path d="M27.878,13.539,30.42-1.991H17.471L14.93,13.539H6.782L9.324-1.991H.813l1.371-8.148h8.471l2.1-12.706H4.322l1.371-8.188h8.39l2.541-15.53h8.148l-2.541,15.53H35.22l2.541-15.53h8.148l-2.541,15.53h8.471l-1.331,8.188H42L39.939-10.139H48.41L47.038-1.991h-8.43l-2.582,15.53ZM18.8-10.139H31.791l2.057-12.706H20.9Z" transform="translate(894.255 387.27)" fill="#009688"/><path d="M837.56,437.582H359.9c-9.339,0-16.909-6.284-16.909-14.036s7.57-14.036,16.909-14.036H837.56c9.339,0,16.909,6.284,16.909,14.036s-7.57,14.036-16.909,14.036Z" transform="translate(552.08 38.627)" fill="#ccc"/><path d="M837.56,437.582H359.9c-9.339,0-16.909-6.284-16.909-14.036s7.57-14.036,16.909-14.036H837.56c9.339,0,16.909,6.284,16.909,14.036s-7.57,14.036-16.909,14.036Z" transform="translate(552.08 85.095)" fill="#ccc"/><path d="M21.317-1.03,23.243-12.8H13.433L11.508-1.03H5.335L7.26-12.8H.813l1.039-6.173H8.269l1.589-9.626H3.471L4.51-34.8h6.356l1.925-11.765h6.173L17.039-34.8h9.84L28.8-46.562h6.173L33.052-34.8h6.417l-1.008,6.2H32.013l-1.558,9.626h6.417L35.833-12.8H29.446L27.49-1.03ZM14.442-18.968h9.84l1.558-9.626H16.031Z" transform="translate(894.255 616.568)" fill="#009688"/><path d="M21.317-1.03,23.243-12.8H13.433L11.508-1.03H5.335L7.26-12.8H.813l1.039-6.173H8.269l1.589-9.626H3.471L4.51-34.8h6.356l1.925-11.765h6.173L17.039-34.8h9.84L28.8-46.562h6.173L33.052-34.8h6.417l-1.008,6.2H32.013l-1.558,9.626h6.417L35.833-12.8H29.446L27.49-1.03ZM14.442-18.968h9.84l1.558-9.626H16.031Z" transform="translate(940.77 616.568)" fill="#009688"/><path d="M21.317-1.03,23.243-12.8H13.433L11.508-1.03H5.335L7.26-12.8H.813l1.039-6.173H8.269l1.589-9.626H3.471L4.51-34.8h6.356l1.925-11.765h6.173L17.039-34.8h9.84L28.8-46.562h6.173L33.052-34.8h6.417l-1.008,6.2H32.013l-1.558,9.626h6.417L35.833-12.8H29.446L27.49-1.03ZM14.442-18.968h9.84l1.558-9.626H16.031Z" transform="translate(987.287 616.568)" fill="#009688"/><path d="M837.56,437.582H359.9c-9.339,0-16.909-6.284-16.909-14.036s7.57-14.036,16.909-14.036H837.56c9.339,0,16.909,6.284,16.909,14.036s-7.57,14.036-16.909,14.036Z" transform="translate(552.08 228.594)" fill="#ccc"/><path d="M837.56,437.582H359.9c-9.339,0-16.909-6.284-16.909-14.036s7.57-14.036,16.909-14.036H837.56c9.339,0,16.909,6.284,16.909,14.036s-7.57,14.036-16.909,14.036Z" transform="translate(552.08 275.062)" fill="#ccc"/><path d="M590.274,437.582H351.442c-4.669,0-8.454-6.284-8.454-14.036s3.785-14.036,8.454-14.036H590.274c4.669,0,8.455,6.284,8.455,14.036s-3.785,14.036-8.455,14.036Z" transform="translate(552.08 321.53)" fill="#ccc"/><path d="M622.733,318.485H445.893a14.036,14.036,0,1,1,0-28.072h176.84a14.036,14.036,0,1,1,0,28.072Z" transform="translate(615.686 524.757)" fill="#3f3d56"/><path d="M21.317-1.03,23.243-12.8H13.433L11.508-1.03H5.335L7.26-12.8H.813l1.039-6.173H8.269l1.589-9.626H3.471L4.51-34.8h6.356l1.925-11.765h6.173L17.039-34.8h9.84L28.8-46.562h6.173L33.052-34.8h6.417l-1.008,6.2H32.013l-1.558,9.626h6.417L35.833-12.8H29.446L27.49-1.03ZM14.442-18.968h9.84l1.558-9.626H16.031Z" transform="translate(894.255 853.002)" fill="#009688"/><path d="M21.317-1.03,23.243-12.8H13.433L11.508-1.03H5.335L7.26-12.8H.813l1.039-6.173H8.269l1.589-9.626H3.471L4.51-34.8h6.356l1.925-11.765h6.173L17.039-34.8h9.84L28.8-46.562h6.173L33.052-34.8h6.417l-1.008,6.2H32.013l-1.558,9.626h6.417L35.833-12.8H29.446L27.49-1.03ZM14.442-18.968h9.84l1.558-9.626H16.031Z" transform="translate(940.77 853.002)" fill="#009688"/><path d="M21.317-1.03,23.243-12.8H13.433L11.508-1.03H5.335L7.26-12.8H.813l1.039-6.173H8.269l1.589-9.626H3.471L4.51-34.8h6.356l1.925-11.765h6.173L17.039-34.8h9.84L28.8-46.562h6.173L33.052-34.8h6.417l-1.008,6.2H32.013l-1.558,9.626h6.417L35.833-12.8H29.446L27.49-1.03ZM14.442-18.968h9.84l1.558-9.626H16.031Z" transform="translate(987.287 853.002)" fill="#009688"/><path d="M837.56,437.582H359.9c-9.339,0-16.909-6.284-16.909-14.036s7.57-14.036,16.909-14.036H837.56c9.339,0,16.909,6.284,16.909,14.036s-7.57,14.036-16.909,14.036Z" transform="translate(552.08 465.029)" fill="#ccc"/><path d="M837.56,437.582H359.9c-9.339,0-16.909-6.284-16.909-14.036s7.57-14.036,16.909-14.036H837.56c9.339,0,16.909,6.284,16.909,14.036s-7.57,14.036-16.909,14.036Z" transform="translate(552.08 511.497)" fill="#ccc"/><path d="M590.274,437.582H351.442c-4.669,0-8.454-6.284-8.454-14.036s3.785-14.036,8.454-14.036H590.274c4.669,0,8.455,6.284,8.455,14.036s-3.785,14.036-8.455,14.036Z" transform="translate(552.08 557.964)" fill="#ccc"/></g></svg>