<?xml version="1.0" standalone="no"?>
<!DOCTYPE svg PUBLIC "-//W3C//DTD SVG 20010904//EN"
 "http://www.w3.org/TR/2001/REC-SVG-20010904/DTD/svg10.dtd">
<svg version="1.0" xmlns="http://www.w3.org/2000/svg"
 width="700.000000pt" height="700.000000pt" viewBox="0 0 700.000000 700.000000"
 preserveAspectRatio="xMidYMid meet">
<metadata>
Created by potrace 1.14, written by Peter Selinger 2001-2017
</metadata>
<g transform="translate(0.000000,700.000000) scale(0.100000,-0.100000)"
fill="#000000" stroke="none">
<path d="M5014 6991 c-52 -13 -134 -63 -171 -104 -166 -185 -92 -482 142 -563
126 -43 271 -8 361 88 206 220 69 569 -229 584 -40 1 -86 0 -103 -5z"/>
<path d="M3407 6884 c-1 -1 -42 -4 -92 -8 -49 -3 -99 -8 -110 -10 -25 -4 -119
-18 -122 -18 -2 1 -17 -4 -35 -9 -18 -5 -44 -11 -58 -14 -111 -21 -374 -130
-516 -215 -181 -108 -388 -284 -499 -425 -22 -27 -46 -56 -53 -63 -6 -7 -41
-57 -76 -111 -161 -244 -261 -508 -307 -806 -14 -89 -18 -347 -8 -445 39 -384
155 -683 393 -1009 115 -158 274 -307 457 -428 257 -171 547 -277 864 -320 75
-10 347 -10 440 0 517 54 1011 336 1336 762 182 238 313 542 363 840 25 150
27 170 28 307 1 252 -26 422 -102 652 -131 389 -405 755 -725 967 -72 47 -155
99 -185 116 -133 74 -397 172 -505 189 -22 3 -43 8 -46 10 -4 2 -24 6 -45 9
-22 3 -49 8 -61 10 -40 9 -328 25 -336 19z"/>
<path d="M5641 6182 c-35 -19 -71 -72 -71 -105 0 -50 54 -110 548 -604 l520
-520 -330 -324 c-611 -599 -725 -714 -735 -739 -40 -101 65 -202 169 -161 13
5 98 83 190 173 967 947 978 957 995 996 12 28 9 76 -9 121 -9 24 -1084 1110
-1139 1151 -40 30 -97 35 -138 12z"/>
<path d="M1244 6175 c-33 -14 -1149 -1125 -1168 -1164 -46 -89 -31 -129 96
-252 57 -56 305 -300 552 -542 246 -243 462 -454 479 -470 85 -76 202 -40 221
67 9 50 -20 93 -138 209 -63 61 -299 293 -524 514 l-409 402 523 523 c339 339
527 534 533 553 34 103 -67 201 -165 160z"/>
<path d="M3437 2874 c-1 -1 -31 -4 -67 -7 -356 -31 -698 -235 -913 -543 -108
-155 -193 -383 -212 -570 -47 -443 138 -877 485 -1142 30 -23 61 -47 69 -54 8
-6 64 -37 125 -68 190 -96 326 -130 541 -136 286 -8 501 54 745 215 102 66
247 208 318 310 106 151 196 365 217 516 19 143 22 238 11 350 -61 579 -532
1057 -1106 1121 -53 6 -208 12 -213 8z"/>
<path d="M2128 680 c-74 -23 -119 -51 -167 -107 -93 -104 -110 -261 -43 -388
108 -207 397 -245 557 -74 56 60 85 124 92 206 22 243 -209 434 -439 363z"/>
</g>
</svg>
