<svg width="543" height="543" viewBox="0 0 543 543" fill="none" xmlns="http://www.w3.org/2000/svg">
<circle cx="271.493" cy="418" r="98" fill="#34495E"/>
<circle cx="271.493" cy="418" r="62" fill="white"/>
<circle cx="269" cy="160" r="151" fill="#34495E"/>
<path d="M361.499 40.0013C371.575 48.1077 376.818 53.263 385.498 63.4451L176.543 279.975C166.002 271.269 160.77 266.287 152.543 256.975L361.499 40.0013Z" fill="white"/>
<circle cx="271.493" cy="160" r="99" fill="white"/>
<circle cx="395.493" cy="27" r="27" fill="#F1C40F"/>
<circle cx="395.493" cy="27" r="18" fill="white"/>
<circle cx="172.493" cy="516" r="27" fill="#F1C40F"/>
<circle cx="172.493" cy="516" r="18" fill="white"/>
<rect x="100.042" y="59.0506" width="19.8479" height="140.557" rx="9.92395" transform="rotate(45 100.042 59.0506)" fill="#3498DB"/>
<rect x="114.722" y="245.633" width="19.8479" height="141.278" rx="9.92395" transform="rotate(134.47 114.722 245.633)" fill="#3498DB"/>
<rect width="19.8479" height="140.557" rx="9.92395" transform="matrix(-0.707107 0.707107 0.707107 0.707107 442.173 58)" fill="#3498DB"/>
<rect width="19.8479" height="141.278" rx="9.92395" transform="matrix(0.700538 0.713615 0.713615 -0.700538 427.493 244.582)" fill="#3498DB"/>
</svg>
