<svg version="1.1" id="图层_1" x="0px" y="0px" width="29.193px" height="42.465px" viewBox="0 0 29.193 42.465" enable-background="new 0 0 29.193 42.465" xml:space="preserve" xmlns:xml="http://www.w3.org/XML/1998/namespace" xmlns="http://www.w3.org/2000/svg" xmlns:xlink="http://www.w3.org/1999/xlink" style="transform: rotate(55.6785deg) scale(1, 1); opacity: 1; position: absolute; backface-visibility: hidden; left: 172.567px; top: 106.694px; width: 67.8662px; height: 98.289px; overflow: visible;"><defs class="defs"></defs>
  <path fill="#0abfbf" d="M11.473,36.645c-0.87,0.034-1.327,0.727-1.022,1.541c0,0,1.65,4.391,4.624,4.277
	c2.973-0.111,4.288-4.615,4.288-4.615c0.242-0.832-0.269-1.488-1.135-1.46L11.473,36.645z M15.567,0.614
	c-0.652-0.313-1.241-0.511-1.241-0.511c-0.479-0.161-1.248-0.131-1.711,0.063c0,0-0.568,0.242-1.187,0.596
	C2.109,6.136,5.089,20.829,7.765,28.829c1.173,3.514,1.708,4.646,1.708,4.646c0.32,0.685,1.202,1.219,1.958,1.19l3.343-0.126
	l3.348-0.129c0.748-0.026,1.585-0.627,1.86-1.334c0,0,0.443-1.158,1.346-4.744C23.385,20.163,25.257,5.275,15.567,0.614z
	 M17.722,13.251c0.081,2.072-1.535,3.815-3.606,3.891c-2.074,0.078-3.814-1.535-3.895-3.608c-0.08-2.07,1.536-3.813,3.61-3.895
	C15.901,9.565,17.645,11.182,17.722,13.251z M6.962,31.348c-0.202-0.566-0.437-1.232-0.698-2.02c-0.449-1.348-1.001-3.16-1.487-5.24
	c-0.048-0.214-0.243-0.3-0.433-0.197l-3.57,1.961C0.329,26.089-0.017,26.702,0,27.201l0.137,3.661l0.109,2.743
	c0.035,1.009,0.79,1.437,1.669,0.951l4.83-2.646C6.938,31.807,7.033,31.555,6.962,31.348z M24.375,23.137
	c-0.198-0.089-0.385,0.012-0.422,0.229c-0.326,2.073-0.733,3.921-1.097,5.356c-0.199,0.793-0.376,1.469-0.533,2.045
	c-0.057,0.211,0.059,0.455,0.257,0.543l5.013,2.275c0.914,0.417,1.637-0.064,1.599-1.075l-0.105-2.741l-0.137-3.662
	c-0.021-0.5-0.411-1.084-0.872-1.291L24.375,23.137z" class="color c1"></path>
</svg>